<svg id="Capa_1" enable-background="new 0 0 512 512" height="512" viewBox="0 0 512 512" width="512" xmlns="http://www.w3.org/2000/svg"><g><g><g><g><path d="m253.537 46.035c-115.391 1.329-207.516 94.577-207.516 209.976 0 108.057 81.618 197.051 186.569 208.697l7.729.657c63.477 5.397 125.867-18.958 168.9-65.934l6.54-7.14-18.125 7.872c-84.92 36.879-182.944-9.036-208.972-97.885l-4.822-16.462h78.536l-74.813-74.813c10.845-43.475 43.709-77.764 83.436-96.965 20.298-9.587 42.983-14.948 66.922-14.948 28.327 0 54.898 7.509 77.839 20.64-39.012-45.685-97.266-74.442-162.223-73.695z" fill="#faef93"/></g><g><g><path d="m255.632 450.052-7.729-.657c-104.951-11.646-186.569-100.64-186.569-208.697 0-54.202 20.326-103.515 53.838-140.714-42.531 38.393-69.152 94.006-69.152 156.028 0 108.057 81.618 197.051 186.569 208.698l7.729.657c63.478 5.397 125.867-18.958 168.9-65.935l1.415-1.545c-42.003 37.893-98.059 57.007-155.001 52.165z" fill="#f8e868"/></g><g><path d="m239.716 263.157h-68.037l4.486 22.659h86.21z" fill="#f8e868"/></g></g><g><path d="m220.033 359.904c-9.975 6.74-16.533 18.152-16.533 31.096 0 20.711 16.789 37.5 37.5 37.5 17.336 0 31.925-11.764 36.219-27.744z" fill="#e8ab4c"/></g><g><path d="m256.273 411.184c-20.711 0-37.5-16.789-37.5-37.5 0-4.577.835-8.956 2.336-13.011l-1.076-.768c-9.975 6.739-16.533 18.151-16.533 31.095 0 20.711 16.789 37.5 37.5 37.5 15.397 0 28.62-9.283 34.395-22.554-5.599 3.326-12.137 5.238-19.122 5.238z" fill="#e1763a"/></g><g><path d="m179.082 60.995-49.52 27.616c2.43 14.153 14.761 24.923 29.608 24.923 16.592 0 30.042-13.45 30.042-30.042 0-8.954-3.916-16.993-10.13-22.497z" fill="#e8ab4c"/></g><g><path d="m173.846 98.858c-12.804 0-23.731-8.014-28.056-19.297l-16.227 9.05c2.43 14.153 14.761 24.923 29.608 24.923 12.092 0 22.508-7.148 27.273-17.445-3.833 1.773-8.098 2.769-12.598 2.769z" fill="#e1763a"/></g><g><path d="m98.5 271h15v15h-15z" fill="#fff"/></g><g><path d="m497 497h15v15h-15z" fill="#e8ab4c"/></g><g><path d="m497 406.03h15v15h-15z" fill="#e8ab4c"/></g><g><path d="m0 90.97h15v15h-15z" fill="#e8ab4c"/></g><g><path d="m0 0h15v15h-15z" fill="#e8ab4c"/></g></g></g><g><path d="m248.468 458.369-.533 14.99c5.179.185 10.405.186 15.58.006l-.523-14.991c-4.8.169-9.703.167-14.524-.005z"/><path d="m53.461 256.01c0-62.163 28.145-117.863 72.342-155.037 6.322 12.081 18.93 20.059 33.23 20.059 20.686 0 37.516-16.841 37.516-37.542 0-6.894-1.908-13.579-5.395-19.371 20.309-6.871 42.052-10.599 64.65-10.599 46.239 0 90.541 15.758 126.089 44.127-14.334-4-29.227-6.059-44.239-6.059-24.505 0-48.08 5.271-70.074 15.666l6.402 13.563c19.977-9.442 41.399-14.229 63.672-14.229 26.009 0 51.619 6.794 74.059 19.649l37.423 21.436-28.001-32.815c-41.396-48.514-101.656-76.338-165.331-76.338-58.051 0-112.628 22.623-153.676 63.701s-63.656 95.696-63.656 153.789c0 53.86 19.822 105.541 55.815 145.523 35.722 39.682 84.478 64.765 137.286 70.629l1.653-14.908c-102.483-11.381-179.765-97.897-179.765-201.244zm128.098-172.519c0 12.43-10.105 22.542-22.527 22.542-9.539 0-17.814-5.91-21.063-14.536 12.021-8.647 25.019-16.012 38.801-21.886 3.074 3.936 4.789 8.815 4.789 13.88z"/><path d="m411.712 385.782c-22.441 12.854-48.05 19.649-74.059 19.649-68.407 0-127.823-46.629-144.61-112.115h87.214l-84.337-84.399c11.07-33.412 33.589-61.834 63.792-80.375l-7.838-12.786c-35.954 21.996-61.866 56.902-72.93 97.386l65.126 65.174h-69.458c2.637 15.46 6.731 31.252 13.183 45.184h-33.821l-12.793-12.803-10.6 10.606 17.185 17.197h47.731c4.142 7.133 8.798 13.91 13.915 20.287-8.606 8.397-13.575 19.959-13.575 32.213 0 24.813 20.172 45 44.967 45 17.498 0 33.172-10.172 40.543-25.53 17.654 6.459 36.642 9.961 56.306 9.961 15.037 0 29.955-2.065 44.31-6.078-29.611 23.703-65.31 38.635-103.511 42.893l1.659 14.908c54.896-6.119 104.978-32.751 141.022-74.992l28.003-32.817zm-170.909 35.218c-16.53 0-29.978-13.458-29.978-30 0-7.908 3.112-15.381 8.517-20.931 13.788 14.292 30.1 26.042 48.138 34.587-5.043 9.853-15.269 16.344-26.677 16.344z"/><path d="m155.764 224.44-9.961-11.208c-8.179 7.279-14.779 12.431-25.287 12.431-10.521 0-17.546-5.386-24.998-11.894l-9.854 11.303c6.679 5.831 17.856 15.591 34.853 15.591 17.02 0 27.555-9.376 35.247-16.223z"/><path d="m465.661 435.978h-14.989v15h-14.989v15h14.989v15h14.989v-15h14.989v-15h-14.989z"/><path d="m46.339 74.948h14.989v-15h14.989v-15h-14.989v-15h-14.989v15h-14.989v15h14.989z"/></g></g></svg>